<?xml version="1.0" encoding="UTF-8" standalone="no"?>
<svg
   version="1.2"
   width="12.24mm"
   height="14.87997mm"
   viewBox="0 0 1224 1487.997"
   preserveAspectRatio="xMidYMid"
   fill-rule="evenodd"
   stroke-width="28.222"
   stroke-linejoin="round"
   xml:space="preserve"
   id="svg15"
   sodipodi:docname="def.svg"
   inkscape:version="1.1.1 (3bf5ae0d25, 2021-09-20)"
   xmlns:inkscape="http://www.inkscape.org/namespaces/inkscape"
   xmlns:sodipodi="http://sodipodi.sourceforge.net/DTD/sodipodi-0.dtd"
   xmlns="http://www.w3.org/2000/svg"
   xmlns:svg="http://www.w3.org/2000/svg"><defs
   id="defs19" /><sodipodi:namedview
   id="namedview17"
   pagecolor="#ffffff"
   bordercolor="#666666"
   borderopacity="1.0"
   inkscape:pageshadow="2"
   inkscape:pageopacity="0.0"
   inkscape:pagecheckerboard="0"
   inkscape:document-units="mm"
   showgrid="false"
   fit-margin-top="0"
   fit-margin-left="0"
   fit-margin-right="0"
   fit-margin-bottom="0"
   inkscape:zoom="0.68087123"
   inkscape:cx="353.22391"
   inkscape:cy="475.86091"
   inkscape:window-width="2560"
   inkscape:window-height="1400"
   inkscape:window-x="-12"
   inkscape:window-y="-12"
   inkscape:window-maximized="1"
   inkscape:current-layer="svg15" />
 <g
   visibility="visible"
   id="MasterSlide_1_Default"
   transform="translate(-1449,-1362.003)">
  <desc
   id="desc2">Master slide
  </desc>
  <rect
   fill="none"
   stroke="none"
   x="0"
   y="0"
   width="21590"
   height="27940"
   id="rect4" />
 </g>
 <g
   visibility="visible"
   id="Slide_1_page1"
   transform="translate(-1449,-1362.003)">
  <g
   id="g12">
   <path
   fill="#ffffff"
   stroke="none"
   d="m 2623,1412 c -176,87 -264,174 -562,174 -297,0 -385,-87 -562,-174 0,763 254,1388 562,1388 309,0 562,-625 562,-1388 z"
   id="path7" />
   <path
   fill="none"
   stroke="#000000"
   id="Drawing_1_0"
   stroke-width="100"
   stroke-linejoin="round"
   d="m 2623,1412 c -176,87 -264,174 -562,174 -297,0 -385,-87 -562,-174 0,763 254,1388 562,1388 309,0 562,-625 562,-1388 z" />
   <rect
   fill="none"
   stroke="none"
   x="1500"
   y="1413"
   width="1125"
   height="1389"
   id="rect10" />
  </g>
 </g>
</svg>
