<?xml version="1.0" encoding="UTF-8" standalone="no"?>
<svg
   version="1.2"
   width="58.366417"
   height="59.545746"
   viewBox="0 0 1544.2782 1575.4812"
   preserveAspectRatio="xMidYMid"
   fill-rule="evenodd"
   stroke-width="28.222"
   stroke-linejoin="round"
   xml:space="preserve"
   id="svg23"
   sodipodi:docname="init.svg"
   inkscape:version="1.1.1 (3bf5ae0d25, 2021-09-20)"
   xmlns:inkscape="http://www.inkscape.org/namespaces/inkscape"
   xmlns:sodipodi="http://sodipodi.sourceforge.net/DTD/sodipodi-0.dtd"
   xmlns="http://www.w3.org/2000/svg"
   xmlns:svg="http://www.w3.org/2000/svg"><defs
   id="defs27" /><sodipodi:namedview
   id="namedview25"
   pagecolor="#ffffff"
   bordercolor="#666666"
   borderopacity="1.0"
   inkscape:pageshadow="2"
   inkscape:pageopacity="0.0"
   inkscape:pagecheckerboard="0"
   inkscape:document-units="px"
   showgrid="false"
   fit-margin-top="0"
   fit-margin-left="0"
   fit-margin-right="0"
   fit-margin-bottom="0"
   inkscape:zoom="10.89394"
   inkscape:cx="2.1571627"
   inkscape:cy="31.026425"
   inkscape:window-width="2560"
   inkscape:window-height="1400"
   inkscape:window-x="-12"
   inkscape:window-y="-12"
   inkscape:window-maximized="1"
   inkscape:current-layer="DrawingGroup_1"
   units="px" />
 <g
   visibility="visible"
   id="MasterSlide_1_Default"
   transform="translate(-1300.4145,-1257.4721)">
  <desc
   id="desc2">Master slide
  </desc>
  <rect
   fill="none"
   stroke="none"
   x="0"
   y="0"
   width="21590"
   height="27940"
   id="rect4" />
 </g>
 <g
   visibility="visible"
   id="Slide_1_page1"
   transform="matrix(1.0481904,0,0,1.0481904,-1360.7814,-1317.8875)"
   style="stroke-width:75.7257;stroke-miterlimit:4;stroke-dasharray:none">
  <g
   id="DrawingGroup_1"
   style="stroke-width:75.7257;stroke-miterlimit:4;stroke-dasharray:none">
   
   <g
   id="g977"><g
     id="g12"
     style="stroke-width:86.7418;stroke-miterlimit:4;stroke-dasharray:none"
     transform="matrix(0.87300186,0,0,0.87300186,208.38675,160.2548)">
    <path
   fill="#ffffff"
   stroke="none"
   d="m 2096,1300 417,679 -417,680 -417,-680 z"
   id="path7"
   style="stroke-width:86.7418;stroke-miterlimit:4;stroke-dasharray:none" />
    <path
   fill="none"
   stroke="#000000"
   id="Drawing_1_0"
   stroke-width="100"
   stroke-linejoin="round"
   d="m 2096,1300 417,679 -417,680 -417,-680 z"
   style="stroke-width:86.7418;stroke-miterlimit:4;stroke-dasharray:none" />
    <path
   id="rect10"
   style="fill:none;stroke-width:86.7418;stroke-miterlimit:4;stroke-dasharray:none"
   d="m 1680,1300 h 834 v 1359 h -834 z" />
   </g><g
     id="g19"
     style="stroke-width:86.2617;stroke-miterlimit:4;stroke-dasharray:none"
     transform="matrix(0.87786088,0,0,0.87786088,195.74127,207.41226)">
    <path
   fill="#ffffff"
   stroke="none"
   d="m 2368,2400 36,4 37,5 35,5 34,6 34,7 32,7 31,7 30,8 28,8 27,9 26,9 23,10 23,10 20,10 19,11 18,10 15,11 14,12 11,11 10,12 8,11 6,12 4,12 2,12 v 12 l -2,12 -4,12 -6,12 -8,11 -10,12 -11,11 -14,12 -15,11 -18,11 -19,10 -20,10 -23,10 -24,10 -25,9 -27,9 -29,8 -29,8 -31,7 -33,7 -33,7 -34,6 -36,5 -36,5 -37,5 -37,3 -39,4 -38,2 -39,2 -40,2 -39,1 h -40 -40 l -39,-1 -40,-2 -39,-2 -38,-2 -39,-4 -37,-3 -37,-5 -36,-5 -36,-5 -34,-6 -33,-7 -33,-7 -31,-7 -29,-8 -29,-8 -27,-9 -25,-9 -24,-10 -23,-10 -20,-10 -19,-10 -18,-11 -15,-11 -14,-12 -11,-11 -10,-12 -8,-11 -6,-12 -4,-12 -2,-12 v -12 l 2,-12 4,-12 6,-12 8,-11 10,-12 11,-11 14,-12 15,-11 18,-10 19,-11 20,-10 23,-10 23,-10 26,-9 27,-9 28,-8 30,-8 31,-7 32,-7 34,-7 34,-6 35,-5 37,-5 36,-4 74,61 -27,4 -26,3 -26,4 -26,5 -24,4 -24,5 -22,6 -22,6 -21,6 -20,6 -19,7 -17,7 -16,7 -16,7 -14,8 -12,8 -12,8 -10,8 -8,8 -7,9 -6,9 -4,8 -3,9 -2,9 v 8 l 2,9 2,9 5,8 6,9 7,8 8,9 10,8 11,8 13,8 14,7 15,8 17,7 17,7 19,7 20,6 20,6 22,6 23,5 23,6 25,4 25,5 26,4 26,3 28,3 27,3 28,3 28,2 29,1 29,1 29,1 h 29 29 l 29,-1 29,-1 29,-1 28,-2 28,-3 27,-3 28,-3 26,-3 26,-4 25,-5 25,-4 23,-6 23,-5 22,-6 20,-6 20,-6 19,-7 17,-7 17,-7 15,-8 14,-7 13,-8 11,-8 10,-8 8,-9 7,-8 6,-9 5,-8 2,-9 2,-9 v -8 l -2,-9 -3,-9 -4,-8 -6,-9 -7,-9 -8,-8 -10,-8 -12,-8 -12,-8 -14,-8 -16,-7 -16,-7 -17,-7 -19,-7 -20,-6 -21,-6 -22,-6 -22,-6 -24,-5 -24,-4 -26,-5 -26,-4 -26,-3 -27,-4 z"
   id="path14"
   style="stroke-width:86.2617;stroke-miterlimit:4;stroke-dasharray:none" />
    <path
   fill="none"
   stroke="#000000"
   id="Drawing_2_0"
   stroke-width="100"
   stroke-linejoin="round"
   d="m 2368,2400 36,4 37,5 35,5 34,6 34,7 32,7 31,7 30,8 28,8 27,9 26,9 23,10 23,10 20,10 19,11 18,10 15,11 14,12 11,11 10,12 8,11 6,12 4,12 2,12 v 12 l -2,12 -4,12 -6,12 -8,11 -10,12 -11,11 -14,12 -15,11 -18,11 -19,10 -20,10 -23,10 -24,10 -25,9 -27,9 -29,8 -29,8 -31,7 -33,7 -33,7 -34,6 -36,5 -36,5 -37,5 -37,3 -39,4 -38,2 -39,2 -40,2 -39,1 h -40 -40 l -39,-1 -40,-2 -39,-2 -38,-2 -39,-4 -37,-3 -37,-5 -36,-5 -36,-5 -34,-6 -33,-7 -33,-7 -31,-7 -29,-8 -29,-8 -27,-9 -25,-9 -24,-10 -23,-10 -20,-10 -19,-10 -18,-11 -15,-11 -14,-12 -11,-11 -10,-12 -8,-11 -6,-12 -4,-12 -2,-12 v -12 l 2,-12 4,-12 6,-12 8,-11 10,-12 11,-11 14,-12 15,-11 18,-10 19,-11 20,-10 23,-10 23,-10 26,-9 27,-9 28,-8 30,-8 31,-7 32,-7 34,-7 34,-6 35,-5 37,-5 36,-4 74,61 -27,4 -26,3 -26,4 -26,5 -24,4 -24,5 -22,6 -22,6 -21,6 -20,6 -19,7 -17,7 -16,7 -16,7 -14,8 -12,8 -12,8 -10,8 -8,8 -7,9 -6,9 -4,8 -3,9 -2,9 v 8 l 2,9 2,9 5,8 6,9 7,8 8,9 10,8 11,8 13,8 14,7 15,8 17,7 17,7 19,7 20,6 20,6 22,6 23,5 23,6 25,4 25,5 26,4 26,3 28,3 27,3 28,3 28,2 29,1 29,1 29,1 h 29 29 l 29,-1 29,-1 29,-1 28,-2 28,-3 27,-3 28,-3 26,-3 26,-4 25,-5 25,-4 23,-6 23,-5 22,-6 20,-6 20,-6 19,-7 17,-7 17,-7 15,-8 14,-7 13,-8 11,-8 10,-8 8,-9 7,-8 6,-9 5,-8 2,-9 2,-9 v -8 l -2,-9 -3,-9 -4,-8 -6,-9 -7,-9 -8,-8 -10,-8 -12,-8 -12,-8 -14,-8 -16,-7 -16,-7 -17,-7 -19,-7 -20,-6 -21,-6 -22,-6 -22,-6 -24,-5 -24,-4 -26,-5 -26,-4 -26,-3 -27,-4 z"
   style="stroke-width:86.2617;stroke-miterlimit:4;stroke-dasharray:none" />
    <path
   id="rect17"
   style="fill:none;stroke-width:86.2617;stroke-miterlimit:4;stroke-dasharray:none"
   d="m 1299,2386 h 1595 v 481 H 1299 Z" />
   </g></g>
  </g>
 </g>
</svg>
