<?xml version="1.0" encoding="UTF-8" standalone="no"?>
<svg
   version="1.2"
   width="15.905965mm"
   height="15.471546mm"
   viewBox="0 0 1590.5965 1547.1547"
   preserveAspectRatio="xMidYMid"
   fill-rule="evenodd"
   stroke-width="28.222"
   stroke-linejoin="round"
   xml:space="preserve"
   id="svg35"
   sodipodi:docname="skl.svg"
   inkscape:version="1.1.1 (3bf5ae0d25, 2021-09-20)"
   xmlns:inkscape="http://www.inkscape.org/namespaces/inkscape"
   xmlns:sodipodi="http://sodipodi.sourceforge.net/DTD/sodipodi-0.dtd"
   xmlns="http://www.w3.org/2000/svg"
   xmlns:svg="http://www.w3.org/2000/svg"><defs
   id="defs39" /><sodipodi:namedview
   id="namedview37"
   pagecolor="#ffffff"
   bordercolor="#666666"
   borderopacity="1.0"
   inkscape:pageshadow="2"
   inkscape:pageopacity="0.0"
   inkscape:pagecheckerboard="0"
   inkscape:document-units="mm"
   showgrid="false"
   fit-margin-top="0"
   fit-margin-left="0"
   fit-margin-right="0"
   fit-margin-bottom="0"
   inkscape:zoom="0.68087123"
   inkscape:cx="354.69262"
   inkscape:cy="481.73573"
   inkscape:window-width="2560"
   inkscape:window-height="1400"
   inkscape:window-x="-12"
   inkscape:window-y="-12"
   inkscape:window-maximized="1"
   inkscape:current-layer="svg35" />
 <g
   visibility="visible"
   id="MasterSlide_1_Default"
   transform="translate(-1387.7762,-1202.8454)">
  <desc
   id="desc2">Master slide
  </desc>
  <rect
   fill="none"
   stroke="none"
   x="0"
   y="0"
   width="21590"
   height="27940"
   id="rect4" />
 </g>
 <g
   visibility="visible"
   id="Slide_1_page1"
   transform="translate(-1387.7762,-1202.8454)">
  <g
   id="DrawingGroup_1">
   <g
   id="g10">
    <path
   fill="#ffffff"
   stroke="none"
   d="m 2351,1598 c 164,61 329,62 478,13 90,150 123,332 82,516 -154,4 -308,60 -441,169 -133,110 -216,252 -249,404 -85,-1 -174,-17 -262,-49 -88,-33 -165,-79 -230,-136 74,-135 104,-298 75,-468 -28,-168 -108,-311 -220,-413 89,-167 232,-283 398,-338 81,134 207,242 369,302 z"
   id="path7" />
    <path
   fill="none"
   stroke="#000000"
   id="Drawing_1_0"
   stroke-width="100"
   stroke-linejoin="round"
   d="m 2351,1598 c 164,61 329,62 478,13 90,150 123,332 82,516 -154,4 -308,60 -441,169 -133,110 -216,252 -249,404 -85,-1 -174,-17 -262,-49 -88,-33 -165,-79 -230,-136 74,-135 104,-298 75,-468 -28,-168 -108,-311 -220,-413 89,-167 232,-283 398,-338 81,134 207,242 369,302 z" />
   </g>
   <g
   id="g17">
    <path
   fill="#ffffff"
   stroke="none"
   d="m 2577,2631 c 71,27 146,-7 173,-77 26,-70 -9,-145 -80,-172 -72,-27 -146,8 -172,78 -27,70 7,145 79,171 z"
   id="path12" />
    <path
   fill="none"
   stroke="#000000"
   id="Drawing_2_0"
   stroke-width="100"
   stroke-linejoin="round"
   d="m 2577,2631 c 71,27 146,-7 173,-77 26,-70 -9,-145 -80,-172 -72,-27 -146,8 -172,78 -27,70 7,145 79,171 z" />
    <rect
   fill="none"
   stroke="none"
   x="2451"
   y="2335"
   width="347"
   height="345"
   id="rect15" />
   </g>
   <g
   id="g24">
    <path
   fill="#ffffff"
   stroke="none"
   d="m 1525,2239 c 71,27 147,-7 173,-78 27,-71 -8,-147 -79,-174 -71,-26 -146,9 -173,80 -26,71 8,146 79,172 z"
   id="path19" />
    <path
   fill="none"
   stroke="#000000"
   id="Drawing_3_0"
   stroke-width="100"
   stroke-linejoin="round"
   d="m 1525,2239 c 71,27 147,-7 173,-78 27,-71 -8,-147 -79,-174 -71,-26 -146,9 -173,80 -26,71 8,146 79,172 z" />
    <rect
   fill="none"
   stroke="none"
   x="1399"
   y="1939"
   width="349"
   height="348"
   id="rect22" />
   </g>
   <g
   id="g31">
    <path
   fill="#ffffff"
   stroke="none"
   d="m 2379,1513 c 71,27 147,-7 173,-78 27,-71 -8,-147 -79,-174 -71,-26 -146,9 -173,80 -26,71 8,146 79,172 z"
   id="path26" />
    <path
   fill="none"
   stroke="#000000"
   id="Drawing_4_0"
   stroke-width="100"
   stroke-linejoin="round"
   d="m 2379,1513 c 71,27 147,-7 173,-78 27,-71 -8,-147 -79,-174 -71,-26 -146,9 -173,80 -26,71 8,146 79,172 z" />
    <rect
   fill="none"
   stroke="none"
   x="2253"
   y="1213"
   width="349"
   height="348"
   id="rect29" />
   </g>
  </g>
 </g>
</svg>
