<?xml version="1.0" encoding="UTF-8" standalone="no"?>
<svg
   version="1.2"
   width="16.620001mm"
   height="16.629999mm"
   viewBox="0 0 1662.0001 1663"
   preserveAspectRatio="xMidYMid"
   fill-rule="evenodd"
   stroke-width="28.222"
   stroke-linejoin="round"
   xml:space="preserve"
   id="svg21"
   sodipodi:docname="will.svg"
   inkscape:version="1.1.1 (3bf5ae0d25, 2021-09-20)"
   xmlns:inkscape="http://www.inkscape.org/namespaces/inkscape"
   xmlns:sodipodi="http://sodipodi.sourceforge.net/DTD/sodipodi-0.dtd"
   xmlns="http://www.w3.org/2000/svg"
   xmlns:svg="http://www.w3.org/2000/svg"><defs
   id="defs25" /><sodipodi:namedview
   id="namedview23"
   pagecolor="#ffffff"
   bordercolor="#666666"
   borderopacity="1.0"
   inkscape:pageshadow="2"
   inkscape:pageopacity="0.0"
   inkscape:pagecheckerboard="0"
   inkscape:document-units="mm"
   showgrid="false"
   fit-margin-top="0"
   fit-margin-left="0"
   fit-margin-right="0"
   fit-margin-bottom="0"
   inkscape:zoom="0.68087123"
   inkscape:cx="351.75521"
   inkscape:cy="480.26703"
   inkscape:window-width="2560"
   inkscape:window-height="1400"
   inkscape:window-x="-12"
   inkscape:window-y="-12"
   inkscape:window-maximized="1"
   inkscape:current-layer="svg21" />
 <g
   visibility="visible"
   id="MasterSlide_1_Default"
   transform="translate(-1488,-1249)">
  <desc
   id="desc2">Master slide
  </desc>
  <rect
   fill="none"
   stroke="none"
   x="0"
   y="0"
   width="21590"
   height="27940"
   id="rect4" />
 </g>
 <g
   visibility="visible"
   id="Slide_1_page1"
   transform="translate(-1488,-1249)">
  <g
   id="DrawingGroup_1">
   <g
   id="g12">
    <path
   fill="#ffffff"
   stroke="none"
   d="m 2317,1483 c 339,0 598,258 598,597 0,339 -259,598 -598,598 -339,0 -597,-259 -597,-598 0,-339 258,-597 597,-597 z"
   id="path7" />
    <path
   fill="none"
   stroke="#000000"
   id="Drawing_1_0"
   stroke-width="100"
   stroke-linejoin="round"
   d="m 2317,1483 c 339,0 598,258 598,597 0,339 -259,598 -598,598 -339,0 -597,-259 -597,-598 0,-339 258,-597 597,-597 z" />
    <rect
   fill="none"
   stroke="none"
   x="1721"
   y="1484"
   width="1196"
   height="1196"
   id="rect10" />
   </g>
   <g
   id="g17">
    <path
   fill="none"
   stroke="#000000"
   id="Drawing_2_0"
   stroke-width="100"
   stroke-linejoin="round"
   d="m 2319,1299 c 443,0 781,338 781,781 0,443 -338,782 -781,782 -443,0 -781,-339 -781,-782 0,-443 338,-781 781,-781 z" />
    <rect
   fill="none"
   stroke="none"
   x="1538"
   y="1300"
   width="1563"
   height="1564"
   id="rect15" />
   </g>
  </g>
 </g>
</svg>
