<?xml version="1.0" encoding="UTF-8"?>
<!-- Uploaded to: SVG Repo, www.svgrepo.com, Generator: SVG Repo Mixer Tools -->
<svg width="100" height="100" fill="#000000" version="1.1" viewBox="0 0 7.5002 7.4999" xml:space="preserve" xmlns="http://www.w3.org/2000/svg">
<g transform="matrix(.075 0 0 .075004 1.5001 1.4998)">
	<path d="m27.81 14.38c0.05 0 0.101 0.01 0.16 0.01 0.49 0 0.91-0.359 0.99-0.85l0.01-0.061c0.09-0.609 0.22-1.22 0.39-1.8 0.15-0.53-0.159-1.08-0.699-1.229-0.511-0.15-1.08 0.17-1.23 0.689-0.18 0.66-0.33 1.36-0.45 2.09-0.01 0.051-0.01 0.11-0.01 0.16-1e-3 0.481 0.359 0.911 0.839 0.991z"/>
	<path d="m40.05 2.55c0.05 0 0.11 0 0.17-0.01 0.62-0.11 1.271-0.19 1.92-0.25 0.55-0.04 0.96-0.53 0.92-1.08-0.05-0.54-0.52-0.96-1.08-0.91-0.739 0.06-1.439 0.15-2.1 0.27-0.48 0.08-0.83 0.49-0.83 0.971 0 0.06 0.01 0.12 0.02 0.18 0.08 0.479 0.49 0.829 0.98 0.829z"/>
	<path d="m51.92 3.06c0.6 0.13 1.229 0.271 1.93 0.45 0.08 0.01 0.16 0.021 0.25 0.021 0.45 0 0.851-0.311 0.96-0.75 0.141-0.54-0.189-1.08-0.72-1.211-0.68-0.17-1.36-0.329-2.01-0.47-0.54-0.109-1.08 0.25-1.19 0.771-0.01 0.069-0.02 0.14-0.02 0.21 1e-3 0.469 0.331 0.879 0.8 0.979z"/>
	<path d="m19.75 56.72c-0.601 0.08-1.23 0.13-1.931 0.17-0.539 0.021-0.96 0.46-0.96 1v0.05c0.03 0.53 0.471 0.95 1 0.95h0.051c0.71-0.04 1.409-0.1 2.1-0.18 0.54-0.07 0.93-0.57 0.86-1.12-0.07-0.54-0.57-0.93-1.12-0.87z"/>
	<path d="m33.85 36.73c-0.149-0.67-0.31-1.35-0.5-2.02-0.14-0.521-0.71-0.851-1.22-0.71-0.54 0.149-0.85 0.7-0.71 1.229 0.17 0.601 0.32 1.23 0.46 1.86 0 0.02 0 0.04 0.01 0.06l0.01 0.04c0.11 0.431 0.511 0.75 0.971 0.75 0.069 0 0.14-0.01 0.21-0.029 0.46-0.101 0.79-0.511 0.79-0.98 0-0.05-0.011-0.09-0.021-0.14h0.01z"/>
	<path d="m33.281 46.01c-0.53-0.13-1.07 0.21-1.2 0.74-0.15 0.63-0.33 1.229-0.55 1.81-0.051 0.11-0.07 0.24-0.07 0.36 0.01 0.42 0.26 0.78 0.649 0.93 0.11 0.04 0.23 0.061 0.351 0.061 0.42 0 0.79-0.261 0.939-0.641 0.25-0.66 0.46-1.35 0.631-2.06 0.119-0.54-0.211-1.08-0.75-1.2z"/>
	<path d="m29.121 26.39c0.1 0 0.189-0.01 0.279-0.04 0.431-0.13 0.73-0.52 0.721-0.97 0-0.09-0.011-0.18-0.04-0.271-0.19-0.689-0.36-1.319-0.5-1.909-0.12-0.53-0.67-0.87-1.2-0.74-0.54 0.12-0.87 0.66-0.75 1.2 0.15 0.63 0.33 1.31 0.53 2.01 0.12 0.42 0.519 0.72 0.96 0.72z"/>
	<path d="m59 5c0.416 0 0.804-0.261 0.946-0.676 0.179-0.522-0.1-1.091-0.622-1.271-0.324-0.11-0.646-0.218-0.966-0.322-6e-3 -2e-3 -0.013 0-0.019-2e-3 -0.016-6e-3 -0.031-0.012-0.049-0.018-0.23-0.071-0.465-0.042-0.676 0.044-0.21-0.687-0.428-1.377-0.668-2.078-0.18-0.522-0.748-0.799-1.271-0.622-0.522 0.18-0.801 0.748-0.622 1.271 1.342 3.917 2.199 7.586 2.584 10.929l-9.853-9.853c0.076 8e-3 0.149 0.011 0.225 0.019 0.04 0.01 0.08 0.01 0.11 0.01 0.51 0 0.939-0.38 1-0.89 0.031-0.271-0.049-0.531-0.219-0.741-0.159-0.21-0.399-0.34-0.659-0.37-0.73-0.08-1.431-0.14-2.08-0.17-0.171-6e-3 -0.329 0.042-0.475 0.113-0.382-0.22-0.871-0.183-1.198 0.144-0.391 0.391-0.391 1.023 0 1.414l13.365 13.365c0.078 2.829-0.231 5.368-0.926 7.56l-19.834-19.833c0.092-0.234 0.1-0.503-3e-3 -0.753-0.21-0.489-0.81-0.739-1.31-0.54-0.671 0.28-1.32 0.61-1.931 0.96-0.31 0.181-0.5 0.511-0.5 0.87 0 0.181 0.05 0.351 0.141 0.5 0.18 0.3 0.51 0.49 0.859 0.49 0.181 0 0.36-0.04 0.51-0.13 0.168-0.098 0.345-0.189 0.52-0.282l20.747 20.746c-0.663 1.373-1.505 2.574-2.545 3.564-0.409 0.39-0.856 0.735-1.319 1.059l-21.341-21.344c0.316-0.488 0.673-0.959 1.059-1.393 0.36-0.42 0.33-1.05-0.08-1.42-0.4-0.35-1.07-0.31-1.42 0.09-0.48 0.54-0.92 1.13-1.31 1.74-0.077 0.129-0.114 0.267-0.133 0.408-0.02 0.017-0.045 0.024-0.064 0.042-0.391 0.391-0.391 1.023 0 1.414l21.497 21.498c-2.031 0.941-4.439 1.382-7.158 1.328l-14.588-14.589c-0.076-0.499-0.502-0.906-1.014-0.851-0.55 0.021-0.98 0.48-0.96 1.03 0.03 0.689 0.08 1.39 0.16 2.1 0.06 0.5 0.479 0.88 0.989 0.88h0.12c0.273-0.032 0.502-0.174 0.661-0.374l11.548 11.548c-2.688-0.381-5.617-1.177-8.745-2.393-0.045-0.116-0.092-0.235-0.134-0.351-0.189-0.5-0.79-0.771-1.29-0.58-0.144 0.058-0.265 0.149-0.368 0.258-10.156-3.718-18.471-3.153-23.514 1.648-3.489 3.323-5.144 8.499-4.952 14.916-4e-3 0.054-1e-3 0.104 4e-3 0.158 0.1 2.882 0.561 6.006 1.411 9.335-0.106-0.103-0.229-0.189-0.379-0.238-0.311-0.101-0.622-0.206-0.937-0.313-0.523-0.177-1.091 0.1-1.271 0.622-0.179 0.522 0.1 1.091 0.622 1.271 0.325 0.111 0.647 0.218 0.967 0.323 0.104 0.033 0.207 0.049 0.31 0.049 0.422 0 0.813-0.269 0.951-0.69 6e-3 -0.018 1e-3 -0.035 6e-3 -0.053 0.336 1.228 0.708 2.473 1.145 3.749 0.143 0.414 0.53 0.675 0.946 0.675 0.107 0 0.217-0.018 0.324-0.054 0.522-0.18 0.801-0.748 0.622-1.271-0.147-0.43-0.275-0.849-0.41-1.273 0.02 8e-3 0.034 0.023 0.054 0.028l0.07 0.01c0.66 0.17 1.32 0.32 1.94 0.46 0.07 0.011 0.141 0.021 0.21 0.021 0.471 0 0.88-0.33 0.98-0.79 0.05-0.26 0.01-0.53-0.141-0.75-0.139-0.221-0.368-0.381-0.629-0.441-0.649-0.14-1.3-0.29-1.93-0.449-0.392-0.104-0.792 0.052-1.032 0.353-0.827-2.846-1.383-5.547-1.66-8.061l8.871 8.871c-0.106-0.013-0.213-0.018-0.318-0.033l-0.011 0.05-0.01-0.05c-0.55-0.061-1.05 0.33-1.12 0.87-0.01 0.04-0.01 0.079-0.01 0.13 0 0.5 0.38 0.92 0.88 0.989 0.7 0.091 1.39 0.16 2.061 0.21h0.079c0.187 0 0.353-0.065 0.503-0.156 0.174 0.126 0.371 0.207 0.577 0.207 0.256 0 0.512-0.098 0.707-0.293 0.391-0.391 0.391-1.023 0-1.414l-12.408-12.408c-0.061-2.805 0.265-5.328 0.974-7.512l18.927 18.927c-0.165 0.181-0.27 0.412-0.27 0.669 0 0.1 0.01 0.21 0.05 0.32 0.13 0.409 0.51 0.68 0.95 0.68 0.109 0 0.21-0.01 0.31-0.05l0.061-0.021c0.68-0.229 1.33-0.489 1.93-0.77 0.5-0.24 0.72-0.83 0.479-1.33-0.22-0.48-0.84-0.71-1.329-0.48-0.075 0.036-0.156 0.066-0.233 0.101l-20.066-20.065c0.673-1.376 1.525-2.582 2.575-3.582 0.401-0.382 0.837-0.722 1.287-1.042l21.033 21.033c-0.065 0.048-0.136 0.09-0.188 0.155-0.39 0.479-0.819 0.93-1.279 1.35-0.21 0.18-0.33 0.45-0.33 0.74 0 0.24 0.09 0.479 0.26 0.67 0.18 0.21 0.45 0.33 0.74 0.33 0.25 0 0.489-0.09 0.67-0.25l0.09-0.09c0.51-0.471 0.979-0.971 1.41-1.5 0.138-0.18 0.2-0.399 0.2-0.622 0.143-0.047 0.279-0.118 0.392-0.232 0.391-0.391 0.391-1.023 0-1.414l-21.223-21.222c2.011-0.962 4.388-1.431 7.062-1.425l14.839 14.839v0.017c0.011 0.54 0.44 0.98 0.99 0.98h0.01c0.54 0 0.99-0.44 1-0.98v-0.279c0-0.048-5e-3 -0.099-6e-3 -0.147 0-7e-3 -1e-3 -0.014-1e-3 -0.021-3e-3 -0.547-0.018-1.099-0.063-1.662-0.04-0.551-0.5-0.971-1.07-0.931-0.271 0.021-0.51 0.15-0.69 0.351-2e-3 3e-3 -3e-3 7e-3 -5e-3 9e-3l-11.977-11.977c2.829 0.352 5.926 1.168 9.24 2.456 0.085 0.224 0.168 0.444 0.262 0.681 0.14 0.39 0.52 0.66 0.939 0.66 0.11 0 0.23-0.021 0.341-0.07 0.24-0.086 0.424-0.268 0.538-0.489 3.91 1.405 7.533 2.167 10.791 2.291 0.026 2e-3 0.05 0.015 0.076 0.015 0.014 0 0.027-7e-3 0.041-8e-3 4.968 0.167 9.078-1.154 12.025-3.963 1.378-1.312 2.458-2.929 3.256-4.798 0.015-0.031 0.031-0.059 0.042-0.091 1.169-2.786 1.688-6.148 1.567-9.953 0.022-0.129 0.019-0.256-0.01-0.383-0.131-3.037-0.672-6.352-1.622-9.885 0.16 0.054 0.319 0.106 0.481 0.161 0.109 0.036 0.218 0.053 0.325 0.053z"/>
</g>
<circle cx="3.7501" cy="3.75" r="3.4758" fill="none" stroke="#ec2727" stroke-linecap="round" stroke-linejoin="round" stroke-width=".54867"/><path d="m6.2079 6.2077c-4.9155-4.9155-4.9155-4.9155-4.9155-4.9155" fill="none" stroke="#ec2727" stroke-linejoin="round" stroke-width=".54864"/></svg>
