<?xml version="1.0" encoding="UTF-8"?>
<!-- Uploaded to: SVG Repo, www.svgrepo.com, Generator: SVG Repo Mixer Tools -->
<svg width="113.39" height="113.39" fill="#000000" version="1.1" viewBox="0 0 72.567 72.567" xml:space="preserve" xmlns="http://www.w3.org/2000/svg">

<g transform="matrix(.086818 0 0 .1084 14.447 17.066)"><path d="m395.26-2.714c-4.378-8.55-13.175-13.926-22.784-13.926h-53.052l38.716-106.45c2.85-7.851 1.698-16.597-3.089-23.433-4.796-6.844-12.621-10.914-20.975-10.914h-140.8c-11.75 0-21.99 7.996-24.832 19.388l-51.2 204.8c-1.911 7.646-0.196 15.753 4.659 21.965 4.847 6.212 12.288 9.847 20.173 9.847h53.521l-77.679 221.94c-4.207 12.006 1.05 25.284 12.331 31.164 3.763 1.954 7.808 2.893 11.81 2.893 8.013 0 15.838-3.763 20.787-10.641l230.4-320c5.623-7.8 6.4-18.083 2.014-26.634zm-253.18 331.67 89.6-256h-89.6l51.2-204.8h140.8l-51.2 140.8h89.6z"/><path d="m112.38 154.73c-4.378-8.55-13.175-13.926-22.784-13.926h-53.052l38.716-106.45c2.85-7.851 1.698-16.597-3.089-23.433-4.796-6.844-12.621-10.914-20.975-10.914h-140.8c-11.75 0-21.99 7.996-24.832 19.388l-51.2 204.8c-1.911 7.646-0.196 15.753 4.659 21.965 4.847 6.212 12.288 9.847 20.173 9.847h53.521l-77.679 221.94c-4.207 12.006 1.05 25.284 12.331 31.164 3.763 1.954 7.808 2.893 11.81 2.893 8.013 0 15.838-3.763 20.787-10.641l230.4-320c5.623-7.8 6.4-18.083 2.014-26.634zm-253.18 331.67 89.6-256h-89.6l51.2-204.8h140.8l-51.2 140.8h89.6z"/><path d="m666.63 154.73c-4.378-8.55-13.175-13.926-22.784-13.926h-53.052l38.716-106.45c2.85-7.851 1.698-16.597-3.089-23.433-4.796-6.844-12.621-10.914-20.975-10.914h-140.8c-11.75 0-21.99 7.996-24.832 19.388l-51.2 204.8c-1.911 7.646-0.196 15.753 4.659 21.965 4.847 6.212 12.288 9.847 20.173 9.847h53.521l-77.679 221.94c-4.207 12.006 1.05 25.284 12.331 31.164 3.763 1.954 7.808 2.893 11.81 2.893 8.013 0 15.838-3.763 20.787-10.641l230.4-320c5.623-7.8 6.4-18.083 2.014-26.634zm-253.18 331.67 89.6-256h-89.6l51.2-204.8h140.8l-51.2 140.8h89.6z"/><path d="m395.26-2.714c-4.378-8.55-13.175-13.926-22.784-13.926h-53.052l38.716-106.45c2.85-7.851 1.698-16.597-3.089-23.433-4.796-6.844-12.621-10.914-20.975-10.914h-140.8c-11.75 0-21.99 7.996-24.832 19.388l-51.2 204.8c-1.911 7.646-0.196 15.753 4.659 21.965 4.847 6.212 12.288 9.847 20.173 9.847h53.521l-77.679 221.94c-4.207 12.006 1.05 25.284 12.331 31.164 3.763 1.954 7.808 2.893 11.81 2.893 8.013 0 15.838-3.763 20.787-10.641l230.4-320c5.623-7.8 6.4-18.083 2.014-26.634zm-253.18 331.67 89.6-256h-89.6l51.2-204.8h140.8l-51.2 140.8h89.6z"/><path d="m112.38 154.73c-4.378-8.55-13.175-13.926-22.784-13.926h-53.052l38.716-106.45c2.85-7.851 1.698-16.597-3.089-23.433-4.796-6.844-12.621-10.914-20.975-10.914h-140.8c-11.75 0-21.99 7.996-24.832 19.388l-51.2 204.8c-1.911 7.646-0.196 15.753 4.659 21.965 4.847 6.212 12.288 9.847 20.173 9.847h53.521l-77.679 221.94c-4.207 12.006 1.05 25.284 12.331 31.164 3.763 1.954 7.808 2.893 11.81 2.893 8.013 0 15.838-3.763 20.787-10.641l230.4-320c5.623-7.8 6.4-18.083 2.014-26.634zm-253.18 331.67 89.6-256h-89.6l51.2-204.8h140.8l-51.2 140.8h89.6z"/><path d="m666.63 154.73c-4.378-8.55-13.175-13.926-22.784-13.926h-53.052l38.716-106.45c2.85-7.851 1.698-16.597-3.089-23.433-4.796-6.844-12.621-10.914-20.975-10.914h-140.8c-11.75 0-21.99 7.996-24.832 19.388l-51.2 204.8c-1.911 7.646-0.196 15.753 4.659 21.965 4.847 6.212 12.288 9.847 20.173 9.847h53.521l-77.679 221.94c-4.207 12.006 1.05 25.284 12.331 31.164 3.763 1.954 7.808 2.893 11.81 2.893 8.013 0 15.838-3.763 20.787-10.641l230.4-320c5.623-7.8 6.4-18.083 2.014-26.634zm-253.18 331.67 89.6-256h-89.6l51.2-204.8h140.8l-51.2 140.8h89.6z"/></g></svg>
