<?xml version="1.0" encoding="UTF-8" standalone="no"?>
<!-- Uploaded to: SVG Repo, www.svgrepo.com, Generator: SVG Repo Mixer Tools -->

<svg
   width="59.999821"
   height="60.000004"
   fill="#000000"
   version="1.1"
   viewBox="0 0 38.39851 38.398627"
   xml:space="preserve"
   id="svg16"
   sodipodi:docname="charge.svg"
   inkscape:version="1.2.1 (9c6d41e410, 2022-07-14)"
   xmlns:inkscape="http://www.inkscape.org/namespaces/inkscape"
   xmlns:sodipodi="http://sodipodi.sourceforge.net/DTD/sodipodi-0.dtd"
   xmlns="http://www.w3.org/2000/svg"
   xmlns:svg="http://www.w3.org/2000/svg"><defs
   id="defs20" /><sodipodi:namedview
   id="namedview18"
   pagecolor="#ffffff"
   bordercolor="#000000"
   borderopacity="0.25"
   inkscape:showpageshadow="2"
   inkscape:pageopacity="0.0"
   inkscape:pagecheckerboard="0"
   inkscape:deskcolor="#d1d1d1"
   showgrid="false"
   inkscape:zoom="7.4786137"
   inkscape:cx="45.396114"
   inkscape:cy="37.172665"
   inkscape:window-width="1920"
   inkscape:window-height="1046"
   inkscape:window-x="-11"
   inkscape:window-y="-11"
   inkscape:window-maximized="1"
   inkscape:current-layer="g14" />

<g
   transform="matrix(0.04593925,0,0,0.05735924,7.6445143,9.0304667)"
   id="g14"><g
     id="g317"
     transform="translate(27.861887)"><path
       d="m 367.39811,-2.714 c -4.378,-8.55 -13.175,-13.926 -22.784,-13.926 h -53.052 l 38.716,-106.45 c 2.85,-7.851 1.698,-16.597 -3.089,-23.433 -4.796,-6.844 -12.621,-10.914 -20.975,-10.914 h -140.8 c -11.75,0 -21.99,7.996 -24.832,19.388 l -51.199996,204.8 c -1.911,7.646 -0.196,15.753 4.659,21.965 4.847,6.212 12.287996,9.847 20.172996,9.847 h 53.521 l -77.678996,221.94 c -4.207,12.006 1.05,25.284 12.330996,31.164 3.763,1.954 7.808,2.893 11.81,2.893 8.013,0 15.838,-3.763 20.787,-10.641 l 230.4,-320 c 5.623,-7.8 6.4,-18.083 2.014,-26.634 z m -253.18,331.67 89.6,-256 h -89.6 l 51.2,-204.8 h 140.8 l -51.2,140.8 h 89.6 z"
       id="path2" /><path
       d="M 112.38,154.73 C 108.002,146.18 99.205,140.804 89.596,140.804 H 36.544 L 75.26,34.354 C 78.11,26.503 76.958,17.757 72.171,10.921 67.375,4.077 59.55,0.007 51.196,0.007 h -140.8 c -11.75,0 -21.99,7.996 -24.832,19.388 l -51.2,204.8 c -1.911,7.646 -0.196,15.753 4.659,21.965 4.847,6.212 12.288,9.847 20.173,9.847 h 53.521 l -77.679,221.94 c -4.207,12.006 1.05,25.284 12.331,31.164 3.763,1.954 7.808,2.893 11.81,2.893 8.013,0 15.838,-3.763 20.787,-10.641 l 230.4,-320 c 5.623,-7.8 6.4,-18.083 2.014,-26.634 z m -253.18,331.67 89.6,-256 h -89.6 L -89.6,25.6 H 51.2 L 0,166.4 h 89.6 z"
       id="path4" /><path
       d="m 610.90622,154.73 c -4.378,-8.55 -13.175,-13.926 -22.784,-13.926 h -53.052 l 38.716,-106.45 c 2.85,-7.851 1.698,-16.597 -3.089,-23.433 -4.796,-6.844 -12.621,-10.914 -20.975,-10.914 h -140.8 c -11.75,0 -21.99,7.996 -24.832,19.388 l -51.2,204.8 c -1.911,7.646 -0.196,15.753 4.659,21.965 4.847,6.212 12.288,9.847 20.173,9.847 h 53.521 l -77.679,221.94 c -4.207,12.006 1.05,25.284 12.331,31.164 3.763,1.954 7.808,2.893 11.81,2.893 8.013,0 15.838,-3.763 20.787,-10.641 l 230.4,-320 c 5.623,-7.8 6.4,-18.083 2.014,-26.634 z m -253.18,331.67 89.6,-256 h -89.6 l 51.2,-204.8 h 140.8 l -51.2,140.8 h 89.6 z"
       id="path6" /><path
       d="M 112.38,154.73 C 108.002,146.18 99.205,140.804 89.596,140.804 H 36.544 L 75.26,34.354 C 78.11,26.503 76.958,17.757 72.171,10.921 67.375,4.077 59.55,0.007 51.196,0.007 h -140.8 c -11.75,0 -21.99,7.996 -24.832,19.388 l -51.2,204.8 c -1.911,7.646 -0.196,15.753 4.659,21.965 4.847,6.212 12.288,9.847 20.173,9.847 h 53.521 l -77.679,221.94 c -4.207,12.006 1.05,25.284 12.331,31.164 3.763,1.954 7.808,2.893 11.81,2.893 8.013,0 15.838,-3.763 20.787,-10.641 l 230.4,-320 c 5.623,-7.8 6.4,-18.083 2.014,-26.634 z m -253.18,331.67 89.6,-256 h -89.6 L -89.6,25.6 H 51.2 L 0,166.4 h 89.6 z"
       id="path10" /></g></g></svg>
