<?xml version="1.0" encoding="UTF-8"?>
<!-- Created with Inkscape (http://www.inkscape.org/) -->
<svg width="15.498mm" height="29.997mm" version="1.1" viewBox="0 0 15.498 29.997" xmlns="http://www.w3.org/2000/svg" xmlns:xlink="http://www.w3.org/1999/xlink">
 <g transform="translate(-97.444 -36.589)">
  <g transform="matrix(1.0926 0 0 1.0926 -9.0154 -3.3825)">
   <g transform="matrix(1.0031 0 0 1.0031 -.30158 -.11323)">
    <path id="path7558" d="m97.896 37.042c0.56883 4.5169 0.74757 8.6956 6.6146 13.229" fill="none" stroke="#000" stroke-linecap="round" stroke-width=".91245"/>
    <use transform="rotate(180 104.51 50.271)" xlink:href="#path7558"/>
    <use transform="matrix(1 0 0 -1 3e-6 100.54)" xlink:href="#path7558"/>
    <use transform="matrix(-1 0 0 1 209.02 3.3333e-7)" xlink:href="#path7558"/>
   </g>
   <g id="g12102" transform="matrix(1.0031 0 0 1.0031 -.30158 -.11323)">
    <g id="g12091">
     <path d="m104.51 37.042h-5.5563" fill="none" stroke="#000" stroke-linecap="round" stroke-width=".45623"/>
     <path d="m104.51 39.687h-5.2917" fill="none" stroke="#000" stroke-linecap="round" stroke-width=".5"/>
     <path d="m104.51 44.979h-3.4396" fill="none" stroke="#000" stroke-linecap="round" stroke-width=".5"/>
     <path d="m104.51 47.625h-1.3229" fill="none" stroke="#000" stroke-linecap="round" stroke-width=".5"/>
     <path d="m104.46 42.333h-4.6653" fill="none" stroke="#000" stroke-linecap="round" stroke-width=".5"/>
    </g>
    <use transform="matrix(-1 0 0 1 209.02 -3.3333e-7)" xlink:href="#g12091"/>
   </g>
   <use transform="matrix(1 0 0 -1 6.6712e-5 100.63)" xlink:href="#g12102"/>
  </g>
 </g>
</svg>
