<?xml version="1.0" encoding="UTF-8" standalone="no"?>
<!-- Uploaded to: SVG Repo, www.svgrepo.com, Generator: SVG Repo Mixer Tools -->

<svg
   fill="#000000"
   height="113.38583"
   width="113.39144"
   version="1.1"
   id="Capa_1"
   viewBox="0 0 8.5044998 8.5040787"
   xml:space="preserve"
   sodipodi:docname="dna.svg"
   inkscape:version="1.2.1 (9c6d41e410, 2022-07-14)"
   xmlns:inkscape="http://www.inkscape.org/namespaces/inkscape"
   xmlns:sodipodi="http://sodipodi.sourceforge.net/DTD/sodipodi-0.dtd"
   xmlns="http://www.w3.org/2000/svg"
   xmlns:svg="http://www.w3.org/2000/svg"><defs
   id="defs226" /><sodipodi:namedview
   id="namedview224"
   pagecolor="#ffffff"
   bordercolor="#000000"
   borderopacity="0.25"
   inkscape:showpageshadow="2"
   inkscape:pageopacity="0.0"
   inkscape:pagecheckerboard="0"
   inkscape:deskcolor="#d1d1d1"
   showgrid="false"
   inkscape:zoom="5.7558492"
   inkscape:cx="83.480297"
   inkscape:cy="59.765291"
   inkscape:window-width="1920"
   inkscape:window-height="1046"
   inkscape:window-x="-11"
   inkscape:window-y="-11"
   inkscape:window-maximized="1"
   inkscape:current-layer="Capa_1" />
<g
   id="g221"
   transform="matrix(0.14173838,0,0,0.14173838,1.6938021e-4,-2.242665e-4)">
	<path
   d="m 27.81,14.38 c 0.05,0 0.101,0.01 0.16,0.01 0.49,0 0.91,-0.359 0.99,-0.85 l 0.01,-0.061 c 0.09,-0.609 0.22,-1.22 0.39,-1.8 0.15,-0.53 -0.159,-1.08 -0.699,-1.229 -0.511,-0.15 -1.08,0.17 -1.23,0.689 -0.18,0.66 -0.33,1.36 -0.45,2.09 -0.01,0.051 -0.01,0.11 -0.01,0.16 -0.001,0.481 0.359,0.911 0.839,0.991 z"
   id="path205" />
	<path
   d="m 40.05,2.55 c 0.05,0 0.11,0 0.17,-0.01 C 40.84,2.43 41.491,2.35 42.14,2.29 42.69,2.25 43.1,1.76 43.06,1.21 43.01,0.67 42.54,0.25 41.98,0.3 c -0.739,0.06 -1.439,0.15 -2.1,0.27 -0.48,0.08 -0.83,0.49 -0.83,0.971 0,0.06 0.01,0.12 0.02,0.18 0.08,0.479 0.49,0.829 0.98,0.829 z"
   id="path207" />
	<path
   d="m 51.92,3.06 c 0.6,0.13 1.229,0.271 1.93,0.45 0.08,0.01 0.16,0.021 0.25,0.021 0.45,0 0.851,-0.311 0.96,-0.75 C 55.201,2.241 54.871,1.701 54.34,1.57 53.66,1.4 52.98,1.241 52.33,1.1 51.79,0.991 51.25,1.35 51.14,1.871 c -0.01,0.069 -0.02,0.14 -0.02,0.21 0.001,0.469 0.331,0.879 0.8,0.979 z"
   id="path209" />
	<path
   d="m 19.75,56.72 c -0.601,0.08 -1.23,0.13 -1.931,0.17 -0.539,0.021 -0.96,0.46 -0.96,1 0,0.01 0,0.03 0,0.05 0.03,0.53 0.471,0.95 1,0.95 0.021,0 0.04,0 0.051,0 0.71,-0.04 1.409,-0.1 2.1,-0.18 0.54,-0.07 0.93,-0.57 0.86,-1.12 -0.07,-0.54 -0.57,-0.93 -1.12,-0.87 z"
   id="path211" />
	<path
   d="m 33.85,36.73 c -0.149,-0.67 -0.31,-1.35 -0.5,-2.02 -0.14,-0.521 -0.71,-0.851 -1.22,-0.71 -0.54,0.149 -0.85,0.7 -0.71,1.229 0.17,0.601 0.32,1.23 0.46,1.86 0,0.02 0,0.04 0.01,0.06 l 0.01,0.04 c 0.11,0.431 0.511,0.75 0.971,0.75 0.069,0 0.14,-0.01 0.21,-0.029 0.46,-0.101 0.79,-0.511 0.79,-0.98 0,-0.05 -0.011,-0.09 -0.021,-0.14 h 0.01 z"
   id="path213" />
	<path
   d="m 33.281,46.01 c -0.53,-0.13 -1.07,0.21 -1.2,0.74 -0.15,0.63 -0.33,1.229 -0.55,1.81 -0.051,0.11 -0.07,0.24 -0.07,0.36 0.01,0.42 0.26,0.78 0.649,0.93 0.11,0.04 0.23,0.061 0.351,0.061 0.42,0 0.79,-0.261 0.939,-0.641 0.25,-0.66 0.46,-1.35 0.631,-2.06 0.119,-0.54 -0.211,-1.08 -0.75,-1.2 z"
   id="path215" />
	<path
   d="m 29.121,26.39 c 0.1,0 0.189,-0.01 0.279,-0.04 0.431,-0.13 0.73,-0.52 0.721,-0.97 0,-0.09 -0.011,-0.18 -0.04,-0.271 -0.19,-0.689 -0.36,-1.319 -0.5,-1.909 -0.12,-0.53 -0.67,-0.87 -1.2,-0.74 -0.54,0.12 -0.87,0.66 -0.75,1.2 0.15,0.63 0.33,1.31 0.53,2.01 0.12,0.42 0.519,0.72 0.96,0.72 z"
   id="path217" />
	<path
   d="M 59,5 C 59.416,5 59.804,4.739 59.946,4.324 60.125,3.802 59.846,3.233 59.324,3.053 59,2.943 58.678,2.835 58.358,2.731 58.352,2.729 58.345,2.731 58.339,2.729 58.323,2.723 58.308,2.717 58.29,2.711 58.06,2.64 57.825,2.669 57.614,2.755 57.404,2.068 57.186,1.378 56.946,0.677 56.766,0.155 56.198,-0.122 55.675,0.055 c -0.522,0.18 -0.801,0.748 -0.622,1.271 1.342,3.917 2.199,7.586 2.584,10.929 L 47.784,2.402 c 0.076,0.008 0.149,0.011 0.225,0.019 0.04,0.01 0.08,0.01 0.11,0.01 0.51,0 0.939,-0.38 1,-0.89 C 49.15,1.27 49.07,1.01 48.9,0.8 48.741,0.59 48.501,0.46 48.241,0.43 47.511,0.35 46.81,0.29 46.161,0.26 45.99,0.254 45.832,0.302 45.686,0.373 45.304,0.153 44.815,0.19 44.488,0.517 c -0.391,0.391 -0.391,1.023 0,1.414 l 13.365,13.365 c 0.078,2.829 -0.231,5.368 -0.926,7.56 L 37.093,3.023 C 37.185,2.789 37.193,2.52 37.09,2.27 36.88,1.781 36.28,1.531 35.78,1.73 c -0.671,0.28 -1.32,0.61 -1.931,0.96 -0.31,0.181 -0.5,0.511 -0.5,0.87 0,0.181 0.05,0.351 0.141,0.5 0.18,0.3 0.51,0.49 0.859,0.49 0.181,0 0.36,-0.04 0.51,-0.13 0.168,-0.098 0.345,-0.189 0.52,-0.282 l 20.747,20.746 c -0.663,1.373 -1.505,2.574 -2.545,3.564 -0.409,0.39 -0.856,0.735 -1.319,1.059 L 30.921,8.163 C 31.237,7.675 31.594,7.204 31.98,6.77 32.34,6.35 32.31,5.72 31.9,5.35 31.5,5 30.83,5.04 30.48,5.44 30,5.98 29.56,6.57 29.17,7.18 c -0.077,0.129 -0.114,0.267 -0.133,0.408 -0.02,0.017 -0.045,0.024 -0.064,0.042 -0.391,0.391 -0.391,1.023 0,1.414 L 50.47,30.542 c -2.031,0.941 -4.439,1.382 -7.158,1.328 L 28.724,17.281 c -0.076,-0.499 -0.502,-0.906 -1.014,-0.851 -0.55,0.021 -0.98,0.48 -0.96,1.03 0.03,0.689 0.08,1.39 0.16,2.1 0.06,0.5 0.479,0.88 0.989,0.88 0.04,0 0.08,0 0.12,0 0.273,-0.032 0.502,-0.174 0.661,-0.374 l 11.548,11.548 c -2.688,-0.381 -5.617,-1.177 -8.745,-2.393 -0.045,-0.116 -0.092,-0.235 -0.134,-0.351 -0.189,-0.5 -0.79,-0.771 -1.29,-0.58 -0.144,0.058 -0.265,0.149 -0.368,0.258 C 19.535,24.83 11.22,25.395 6.177,30.196 2.688,33.519 1.033,38.695 1.225,45.112 1.221,45.166 1.224,45.216 1.229,45.27 1.329,48.152 1.79,51.276 2.64,54.605 2.534,54.502 2.411,54.416 2.261,54.367 1.95,54.266 1.639,54.161 1.324,54.054 c -0.523,-0.177 -1.091,0.1 -1.271,0.622 -0.179,0.522 0.1,1.091 0.622,1.271 0.325,0.111 0.647,0.218 0.967,0.323 0.104,0.033 0.207,0.049 0.31,0.049 0.422,0 0.813,-0.269 0.951,-0.69 0.006,-0.018 10e-4,-0.035 0.006,-0.053 0.336,1.228 0.708,2.473 1.145,3.749 C 4.197,59.739 4.584,60 5,60 5.107,60 5.217,59.982 5.324,59.946 5.846,59.766 6.125,59.198 5.946,58.675 5.799,58.245 5.671,57.826 5.536,57.402 5.556,57.41 5.57,57.425 5.59,57.43 l 0.07,0.01 c 0.66,0.17 1.32,0.32 1.94,0.46 0.07,0.011 0.141,0.021 0.21,0.021 0.471,0 0.88,-0.33 0.98,-0.79 0.05,-0.26 0.01,-0.53 -0.141,-0.75 C 8.51,56.16 8.281,56 8.02,55.94 7.371,55.8 6.72,55.65 6.09,55.491 5.698,55.387 5.298,55.543 5.058,55.844 4.231,52.998 3.675,50.297 3.398,47.783 l 8.871,8.871 c -0.106,-0.013 -0.213,-0.018 -0.318,-0.033 l -0.011,0.05 -0.01,-0.05 c -0.55,-0.061 -1.05,0.33 -1.12,0.87 -0.01,0.04 -0.01,0.079 -0.01,0.13 0,0.5 0.38,0.92 0.88,0.989 0.7,0.091 1.39,0.16 2.061,0.21 0.029,0 0.05,0 0.079,0 0.187,0 0.353,-0.065 0.503,-0.156 0.174,0.126 0.371,0.207 0.577,0.207 0.256,0 0.512,-0.098 0.707,-0.293 0.391,-0.391 0.391,-1.023 0,-1.414 L 3.199,44.756 C 3.138,41.951 3.464,39.428 4.173,37.244 L 23.1,56.171 c -0.165,0.181 -0.27,0.412 -0.27,0.669 0,0.1 0.01,0.21 0.05,0.32 0.13,0.409 0.51,0.68 0.95,0.68 0.109,0 0.21,-0.01 0.31,-0.05 l 0.061,-0.021 c 0.68,-0.229 1.33,-0.489 1.93,-0.77 0.5,-0.24 0.72,-0.83 0.479,-1.33 -0.22,-0.48 -0.84,-0.71 -1.329,-0.48 -0.075,0.036 -0.156,0.066 -0.233,0.101 L 4.982,35.225 c 0.673,-1.376 1.525,-2.582 2.575,-3.582 0.401,-0.382 0.837,-0.722 1.287,-1.042 l 21.033,21.033 c -0.065,0.048 -0.136,0.09 -0.188,0.155 -0.39,0.479 -0.819,0.93 -1.279,1.35 -0.21,0.18 -0.33,0.45 -0.33,0.74 0,0.24 0.09,0.479 0.26,0.67 0.18,0.21 0.45,0.33 0.74,0.33 0.25,0 0.489,-0.09 0.67,-0.25 l 0.09,-0.09 c 0.51,-0.471 0.979,-0.971 1.41,-1.5 0.138,-0.18 0.2,-0.399 0.2,-0.622 0.143,-0.047 0.279,-0.118 0.392,-0.232 0.391,-0.391 0.391,-1.023 0,-1.414 L 10.619,29.549 c 2.011,-0.962 4.388,-1.431 7.062,-1.425 L 32.52,42.963 v 0.017 c 0.011,0.54 0.44,0.98 0.99,0.98 h 0.01 c 0.54,0 0.99,-0.44 1,-0.98 0,-0.09 0,-0.189 0,-0.279 0,-0.048 -0.005,-0.099 -0.006,-0.147 0,-0.007 -0.001,-0.014 -0.001,-0.021 C 34.51,41.986 34.495,41.434 34.45,40.871 34.41,40.32 33.95,39.9 33.38,39.94 c -0.271,0.021 -0.51,0.15 -0.69,0.351 -0.002,0.003 -0.003,0.007 -0.005,0.009 L 20.708,28.323 c 2.829,0.352 5.926,1.168 9.24,2.456 0.085,0.224 0.168,0.444 0.262,0.681 0.14,0.39 0.52,0.66 0.939,0.66 0.11,0 0.23,-0.021 0.341,-0.07 0.24,-0.086 0.424,-0.268 0.538,-0.489 3.91,1.405 7.533,2.167 10.791,2.291 0.026,0.002 0.05,0.015 0.076,0.015 0.014,0 0.027,-0.007 0.041,-0.008 4.968,0.167 9.078,-1.154 12.025,-3.963 1.378,-1.312 2.458,-2.929 3.256,-4.798 0.015,-0.031 0.031,-0.059 0.042,-0.091 1.169,-2.786 1.688,-6.148 1.567,-9.953 0.022,-0.129 0.019,-0.256 -0.01,-0.383 -0.131,-3.037 -0.672,-6.352 -1.622,-9.885 0.16,0.054 0.319,0.106 0.481,0.161 C 58.784,4.983 58.893,5 59,5 Z"
   id="path219" />
</g>
</svg>
