<?xml version="1.0" encoding="UTF-8" standalone="no"?>
<svg
   version="1.2"
   width="13.524624mm"
   height="13.229167mm"
   viewBox="0 0 1352.4624 1322.9168"
   preserveAspectRatio="xMidYMid"
   fill-rule="evenodd"
   stroke-width="28.222"
   stroke-linejoin="round"
   xml:space="preserve"
   id="svg35"
   sodipodi:docname="skl.svg"
   inkscape:version="1.1.1 (3bf5ae0d25, 2021-09-20)"
   xmlns:inkscape="http://www.inkscape.org/namespaces/inkscape"
   xmlns:sodipodi="http://sodipodi.sourceforge.net/DTD/sodipodi-0.dtd"
   xmlns="http://www.w3.org/2000/svg"
   xmlns:svg="http://www.w3.org/2000/svg"><defs
   id="defs39" /><sodipodi:namedview
   id="namedview37"
   pagecolor="#ffffff"
   bordercolor="#666666"
   borderopacity="1.0"
   inkscape:pageshadow="2"
   inkscape:pageopacity="0.0"
   inkscape:pagecheckerboard="0"
   inkscape:document-units="mm"
   showgrid="false"
   fit-margin-top="0"
   fit-margin-left="0"
   fit-margin-right="0"
   fit-margin-bottom="0"
   inkscape:zoom="10.89394"
   inkscape:cx="48.054241"
   inkscape:cy="33.045896"
   inkscape:window-width="2560"
   inkscape:window-height="1400"
   inkscape:window-x="-12"
   inkscape:window-y="-12"
   inkscape:window-maximized="1"
   inkscape:current-layer="DrawingGroup_1" />
 <g
   visibility="visible"
   id="MasterSlide_1_Default"
   transform="translate(-1391.8327,-1199.2942)">
  <desc
   id="desc2">Master slide
  </desc>
  <rect
   fill="none"
   stroke="none"
   x="0"
   y="0"
   width="21590"
   height="27940"
   id="rect4" />
 </g>
 <g
   visibility="visible"
   id="Slide_1_page1"
   transform="translate(-1391.8327,-1199.2942)">
  <g
   id="DrawingGroup_1"
   style="stroke-width:92.3708;stroke-miterlimit:4;stroke-dasharray:none"
   transform="matrix(0.85930824,0,0,0.85930824,196.64206,170.61573)">
   
   
   
   <g
   id="g933"
   style="stroke-width:92.4039;stroke-miterlimit:4;stroke-dasharray:none"
   transform="matrix(0.9996207,0,0,0.9996207,0.52756269,0.45406426)"><g
     id="g10"
     style="stroke-width:92.9609;stroke-miterlimit:4;stroke-dasharray:none"
     transform="matrix(0.99400805,0,0,0.99400805,8.3381329,7.1747142)">
    <path
   fill="#ffffff"
   stroke="none"
   d="m 2351,1598 c 164,61 329,62 478,13 90,150 123,332 82,516 -154,4 -308,60 -441,169 -133,110 -216,252 -249,404 -85,-1 -174,-17 -262,-49 -88,-33 -165,-79 -230,-136 74,-135 104,-298 75,-468 -28,-168 -108,-311 -220,-413 89,-167 232,-283 398,-338 81,134 207,242 369,302 z"
   id="path7"
   style="stroke-width:92.9609;stroke-miterlimit:4;stroke-dasharray:none" />
    <path
   fill="none"
   stroke="#000000"
   id="Drawing_1_0"
   stroke-width="100"
   stroke-linejoin="round"
   d="m 2351,1598 c 164,61 329,62 478,13 90,150 123,332 82,516 -154,4 -308,60 -441,169 -133,110 -216,252 -249,404 -85,-1 -174,-17 -262,-49 -88,-33 -165,-79 -230,-136 74,-135 104,-298 75,-468 -28,-168 -108,-311 -220,-413 89,-167 232,-283 398,-338 81,134 207,242 369,302 z"
   style="stroke-width:92.9609;stroke-miterlimit:4;stroke-dasharray:none" />
   </g><g
     id="g17"
     style="stroke-width:92.9609;stroke-miterlimit:4;stroke-dasharray:none"
     transform="matrix(0.99400805,0,0,0.99400805,-6.9729408,-2.0218805)">
    <path
   fill="#ffffff"
   stroke="none"
   d="m 2577,2631 c 71,27 146,-7 173,-77 26,-70 -9,-145 -80,-172 -72,-27 -146,8 -172,78 -27,70 7,145 79,171 z"
   id="path12"
   style="stroke-width:92.9609;stroke-miterlimit:4;stroke-dasharray:none" />
    <path
   fill="none"
   stroke="#000000"
   id="Drawing_2_0"
   stroke-width="100"
   stroke-linejoin="round"
   d="m 2577,2631 c 71,27 146,-7 173,-77 26,-70 -9,-145 -80,-172 -72,-27 -146,8 -172,78 -27,70 7,145 79,171 z"
   style="stroke-width:92.9609;stroke-miterlimit:4;stroke-dasharray:none" />
    <path
   id="rect15"
   style="fill:none;stroke-width:92.9609;stroke-miterlimit:4;stroke-dasharray:none"
   d="m 2451,2335 h 347 v 345 h -347 z" />
   </g><g
     id="g24"
     style="stroke-width:93.7632;stroke-miterlimit:4;stroke-dasharray:none"
     transform="matrix(0.98550254,0,0,0.98550254,20.174018,20.555915)">
    <path
   fill="#ffffff"
   stroke="none"
   d="m 1525,2239 c 71,27 147,-7 173,-78 27,-71 -8,-147 -79,-174 -71,-26 -146,9 -173,80 -26,71 8,146 79,172 z"
   id="path19"
   style="stroke-width:93.7632;stroke-miterlimit:4;stroke-dasharray:none" />
    <path
   fill="none"
   stroke="#000000"
   id="Drawing_3_0"
   stroke-width="100"
   stroke-linejoin="round"
   d="m 1525,2239 c 71,27 147,-7 173,-78 27,-71 -8,-147 -79,-174 -71,-26 -146,9 -173,80 -26,71 8,146 79,172 z"
   style="stroke-width:93.7632;stroke-miterlimit:4;stroke-dasharray:none" />
    <path
   id="rect22"
   style="fill:none;stroke-width:93.7632;stroke-miterlimit:4;stroke-dasharray:none"
   d="m 1399,1939 h 349 v 348 h -349 z" />
   </g><g
     id="g31"
     style="stroke-width:92.9609;stroke-miterlimit:4;stroke-dasharray:none"
     transform="matrix(0.99400805,0,0,0.99400805,29.761121,-2.0070189)">
    <path
   fill="#ffffff"
   stroke="none"
   d="m 2379,1513 c 71,27 147,-7 173,-78 27,-71 -8,-147 -79,-174 -71,-26 -146,9 -173,80 -26,71 8,146 79,172 z"
   id="path26"
   style="stroke-width:92.9609;stroke-miterlimit:4;stroke-dasharray:none" />
    <path
   fill="none"
   stroke="#000000"
   id="Drawing_4_0"
   stroke-width="100"
   stroke-linejoin="round"
   d="m 2379,1513 c 71,27 147,-7 173,-78 27,-71 -8,-147 -79,-174 -71,-26 -146,9 -173,80 -26,71 8,146 79,172 z"
   style="stroke-width:92.9609;stroke-miterlimit:4;stroke-dasharray:none" />
    <path
   id="rect29"
   style="fill:none;stroke-width:92.9609;stroke-miterlimit:4;stroke-dasharray:none"
   d="m 2253,1213 h 349 v 348 h -349 z" />
   </g></g>
  </g>
 </g>
</svg>
